# xmcd CD database file
#
# Track frame offsets:
#	150
#	16707
#	36637
#	54072
#	66465
#	82222
#	100135
#	115267
#	130020
#	144250
#	166130
#	180590
#	195657
#	212217
#	234725
#
# Disc length: 3349 seconds
#
# Revision: 0
# Processed by: cddbd v1.5.2PL0 Copyright (c) Steve Scherf et al.
# Submitted via: CDex 1.51
#
DISCID=ce0d130f
DTITLE=Various Artist - Country Lovin' - Disc Two
DYEAR=2007
DGENRE=Country
TTITLE0=When She Cries - Restless Heart
TTITLE1=She Is His Only Need - Wynonna
TTITLE2=Your Love Amazes Me - John Berry
TTITLE3=What Part Of No - Lorrie Morgan
TTITLE4=So Help Me Girl - Joe Diffie
TTITLE5=I Still Believe In You - Vince Gill
TTITLE6=Passionate Kisses - Mary Chapin Carpenter
TTITLE7=That's As Close as I'll Get To Loving You - Aaron Tippen
TTITLE8=Where Are You Now - Clint Black
TTITLE9=Strawberry Wine - Deana Carter
TTITLE10=In This Life - Collin Raye
TTITLE11=In Between Dances - Pam Tillis
TTITLE12=What Mattered Most - Ty Herndon
TTITLE13=How Can I Help You Say Goodbye - Patty Loveless
TTITLE14=Love A Little Stronger - Diamond Rio
EXTD=YEAR: 2007
EXTT0=
EXTT1=
EXTT2=
EXTT3=
EXTT4=
EXTT5=
EXTT6=
EXTT7=
EXTT8=
EXTT9=
EXTT10=
EXTT11=
EXTT12=
EXTT13=
EXTT14=
PLAYORDER=
